<svg xmlns="http://www.w3.org/2000/svg" enable-background="new 62 203.9 719 435" viewBox="62 203.9 719 435" id="pci"><path fill="#006c67" stroke="#006c67" stroke-miterlimit="10" stroke-width="5" d="M724.6,633.6H119.9c-28.7,0-52-23.3-52-52V260.4c0-28.7,23.3-52,52-52h604.7c28.7,0,52,23.3,52,52v321.2  C776.6,610.4,753.3,633.6,724.6,633.6z"></path><path fill="#fff" stroke="#006c67" stroke-miterlimit="10" stroke-width="5" d="M724.6,478.7H119.9c-28.7,0-52-23.3-52-52V260.4c0-28.7,23.3-52,52-52h604.7c28.7,0,52,23.3,52,52v166.3  C776.6,455.4,753.3,478.7,724.6,478.7z"></path><g><g><path fill="#006d69" d="M464.3,378.8c-17.2,5.4-34,10.7-51.2,16.1c0-1.4,0-2.5,0-3.5c0-25.9,0-51.9,0-77.8c0-3.4,0-3.4-3.5-3.4    c-8.8,0-17.7,0.1-26.5,0c-2.3,0-3,0.7-3,3c0.1,26.5,0.1,52.9,0,79.4c0,2.1,0.6,2.9,2.8,2.9c9-0.1,18,0,27.2,0.3    c-0.5,0.2-1.1,0.5-1.6,0.7c-63.2,19.9-126.5,39.8-189.7,59.7c-1.3,0.4-2.4,0.9-3.1-1c-7.2-19.7-14.5-39.4-21.9-59.5    c1.3-0.1,2.3-0.2,3.3-0.2c8.7,0,17.3-0.1,26,0.1c2.5,0,3.1-0.8,3-3.1c-0.1-6.4,0.1-12.8-0.1-19.2c-0.1-2.6,0.8-3.2,3.3-3.2    c9.2,0.2,18.4-0.6,27.2-3.8c8.4-3.1,15.3-7.9,18.7-16.5c5.5-13.6-0.1-27.6-13.5-33.8c-7.6-3.5-15.7-5.2-23.9-5.3    c-14-0.3-28-0.1-42-0.3c-2.7,0-2.4,1.7-2.4,3.3c0,25.5,0,51,0,76.5c0,0.9,0,1.7,0,2.6c-0.2,0-0.4,0.1-0.5,0.1    c-16.4-44.4-32.6-88.4-48.9-132.9c5.5-0.3,10.7-0.7,15.9-1c45.6-2.5,91.3-5.1,136.9-7.6c35.2-2,70.3-4,105.5-6    c2-0.1,2.6,0.9,3.2,2.3c13.9,31,27.8,62,41.8,93c5.2,11.6,10.4,23.2,15.6,34.7C463.3,376.4,463.6,377.4,464.3,378.8z M365.1,335.8    c0.1-1.2,0.2-2.1,0.2-2.9c0-5.8-0.1-11.6,0.1-17.3c0.1-2.2-0.7-3.1-2.7-3.7c-9.7-3.3-19.6-3.5-29.6-3c-9.4,0.5-18.6,2.5-27,7.1    c-15.2,8.2-23.7,20.6-23.2,38.2c0.5,17.9,9.6,30.3,26,36.9c18.5,7.5,37.4,7.2,56.5,2.1c1.6-0.4,2-1.3,2-2.8    c-0.1-5.8-0.1-11.6-0.1-17.3c0-0.6-0.2-1.1-0.3-1.8c-4.5,1.2-8.7,2.6-13,3.5c-7.7,1.5-15.3,1.7-22.8-1.3    c-9.7-3.8-14.9-12.4-13.9-22.9c1-11.1,7.2-18.1,17.8-20.1c9.4-1.7,18.3,0.1,26.8,4C362.8,334.8,363.8,335.2,365.1,335.8z     M416.4,283.7c0-11.2-8-18.7-19.9-18.7s-19.9,7.5-19.9,18.7c0,11,8,18.5,19.8,18.6C408.3,302.4,416.4,294.8,416.4,283.7z"></path><path fill="#006d69" d="M230.2,351c-0.7,0-1.4,0.1-2.1,0.1c-1.6,0.2-2.4-0.4-2.4-2.2c0.1-5.9,0-11.9,0-17.8c0-1.3,0.2-2.3,1.8-2.2    c3.8,0.4,7.7,0.6,11.4,1.5c4.3,1.1,6.4,4.4,6.5,8.8c0.2,4.9-1.6,8.3-5.8,9.9c-3,1.1-6.2,1.6-9.3,2.3    C230.2,351.3,230.2,351.1,230.2,351z"></path></g><g><path fill="#00716d" d="M507.7 276.4h29.2c5.8 0 10.4.8 13.9 2.3 3.5 1.6 6.5 3.8 8.8 6.7 2.3 2.9 4 6.3 5 10.2s1.6 8 1.6 12.3c0 6.8-.8 12.1-2.3 15.8s-3.7 6.9-6.4 9.4c-2.7 2.5-5.7 4.2-8.8 5.1-4.3 1.2-8.2 1.7-11.7 1.7h-29.2v-63.5H507.7zM527.3 290.8v34.7h4.8c4.1 0 7-.5 8.8-1.4 1.7-.9 3.1-2.5 4.1-4.8 1-2.3 1.5-5.9 1.5-11 0-6.7-1.1-11.3-3.3-13.8-2.2-2.5-5.8-3.7-10.9-3.7H527.3zM573.1 319l18.7-1.2c.4 3 1.2 5.3 2.5 6.9 2 2.6 4.9 3.9 8.7 3.9 2.8 0 5-.7 6.5-2 1.5-1.3 2.3-2.8 2.3-4.6 0-1.6-.7-3.1-2.2-4.4-1.4-1.3-4.8-2.5-10.1-3.7-8.6-1.9-14.8-4.5-18.4-7.7-3.7-3.2-5.6-7.3-5.6-12.3 0-3.3.9-6.4 2.8-9.3 1.9-2.9 4.7-5.2 8.5-6.9 3.8-1.7 9-2.5 15.6-2.5 8.1 0 14.3 1.5 18.6 4.5s6.8 7.8 7.6 14.4l-18.5 1.1c-.5-2.9-1.5-4.9-3.1-6.2-1.6-1.3-3.8-2-6.5-2-2.3 0-4 .5-5.2 1.5s-1.7 2.1-1.7 3.5c0 1 .5 1.9 1.4 2.7.9.8 3.1 1.6 6.6 2.3 8.6 1.9 14.7 3.7 18.5 5.6 3.7 1.9 6.4 4.2 8.1 7 1.7 2.8 2.5 5.9 2.5 9.4 0 4.1-1.1 7.8-3.4 11.3-2.3 3.4-5.4 6-9.5 7.8-4 1.8-9.2 2.7-15.3 2.7-10.8 0-18.3-2.1-22.5-6.2C576 330.7 573.6 325.4 573.1 319zM637.2 319l18.7-1.2c.4 3 1.2 5.3 2.5 6.9 2 2.6 4.9 3.9 8.7 3.9 2.8 0 5-.7 6.5-2 1.5-1.3 2.3-2.8 2.3-4.6 0-1.6-.7-3.1-2.2-4.4-1.4-1.3-4.8-2.5-10.1-3.7-8.6-1.9-14.8-4.5-18.4-7.7-3.7-3.2-5.6-7.3-5.6-12.3 0-3.3.9-6.4 2.8-9.3 1.9-2.9 4.7-5.2 8.5-6.9 3.8-1.7 9-2.5 15.6-2.5 8.1 0 14.3 1.5 18.6 4.5s6.8 7.8 7.6 14.4l-18.5 1.1c-.5-2.9-1.5-4.9-3.1-6.2-1.6-1.3-3.8-2-6.5-2-2.3 0-4 .5-5.2 1.5s-1.7 2.1-1.7 3.5c0 1 .5 1.9 1.4 2.7.9.8 3.1 1.6 6.6 2.3 8.6 1.9 14.7 3.7 18.5 5.6 3.7 1.9 6.4 4.2 8.1 7 1.7 2.8 2.5 5.9 2.5 9.4 0 4.1-1.1 7.8-3.4 11.3-2.3 3.4-5.4 6-9.5 7.8-4 1.8-9.2 2.7-15.3 2.7-10.8 0-18.3-2.1-22.5-6.2C640.1 330.7 637.7 325.4 637.2 319z"></path></g><g><path fill="#00716d" d="M519.7 365.1l5.2 1.6c-.4 1.5-.9 2.7-1.7 3.7s-1.7 1.7-2.8 2.2-2.5.8-4.3.8c-2.1 0-3.8-.3-5.1-.9-1.3-.6-2.5-1.7-3.4-3.2s-1.4-3.5-1.4-5.9c0-3.2.8-5.7 2.6-7.4 1.7-1.7 4.1-2.6 7.2-2.6 2.4 0 4.3.5 5.7 1.5s2.4 2.5 3.1 4.5l-5.3 1.2c-.2-.6-.4-1-.6-1.3-.3-.5-.7-.8-1.2-1.1-.5-.3-1-.4-1.6-.4-1.4 0-2.4.5-3.1 1.6-.5.8-.8 2.1-.8 3.8 0 2.1.3 3.6 1 4.4.6.8 1.6 1.2 2.7 1.2s2-.3 2.6-1C519 367.2 519.5 366.3 519.7 365.1zM528.2 363.3c0-3.2.9-5.6 2.6-7.4 1.8-1.8 4.2-2.6 7.3-2.6 3.2 0 5.7.9 7.4 2.6 1.7 1.7 2.6 4.1 2.6 7.3 0 2.3-.4 4.1-1.1 5.6-.8 1.4-1.9 2.6-3.3 3.4-1.4.8-3.2 1.2-5.4 1.2-2.2 0-4-.3-5.4-1-1.4-.7-2.6-1.8-3.5-3.3S528.2 365.6 528.2 363.3zM534.2 363.4c0 2 .4 3.4 1.1 4.2.7.9 1.7 1.3 3 1.3 1.3 0 2.3-.4 3-1.3.7-.8 1.1-2.3 1.1-4.5 0-1.8-.4-3.1-1.1-4-.7-.8-1.7-1.3-3-1.3-1.2 0-2.2.4-2.9 1.3C534.5 360 534.2 361.4 534.2 363.4zM552.5 353.7h7.9l3 11.8 3-11.8h7.8V373h-4.9v-14.7l-3.8 14.7h-4.4l-3.8-14.7V373h-4.9L552.5 353.7 552.5 353.7zM579.1 353.7h9.9c2.2 0 3.8.5 4.9 1.5 1.1 1 1.6 2.5 1.6 4.4 0 2-.6 3.5-1.8 4.6s-3 1.6-5.4 1.6H585v7.2h-6L579.1 353.7 579.1 353.7zM585.1 361.9h1.5c1.2 0 2-.2 2.4-.6.5-.4.7-.9.7-1.5s-.2-1.1-.6-1.5c-.4-.4-1.2-.6-2.3-.6h-1.7L585.1 361.9 585.1 361.9zM599.7 353.7h6v14.6h9.3v4.8h-15.3V353.7zM619 353.7h6V373h-6V353.7zM642.2 369.8h-6.8l-.9 3.2h-6.1l7.3-19.3h6.5l7.3 19.3h-6.3L642.2 369.8zM641 365.6l-2.1-6.9-2.1 6.9H641zM652.5 353.7h5.6l7.3 10.7v-10.7h5.6V373h-5.6l-7.2-10.6V373h-5.6L652.5 353.7 652.5 353.7zM674.6 353.7h18.2v4.8h-6.1v14.6h-6v-14.6h-6.1L674.6 353.7 674.6 353.7z"></path></g><g><path fill="#47a141" d="M394.8,438.8c-6.5,0-12.4-1.9-14.5-3.2c-2.1-1.3-12.1-13.4-29.6-36l-0.6-0.8l-0.2-1    c-0.7-4.3,0.6-8.7,3.7-12.4c3.3-3.9,8.3-6.5,12.3-6.5c1,0,1.9,0.1,2.7,0.4c5.5,1.7,17.8,12.7,24.6,19.2    c5.3-7.7,17.7-25.6,30.7-43.7c35.1-48.9,39.8-51,41.9-51.9c9.3-4.1,20.2-5.9,26.9-5.9c0.9,0,1.7,0,2.5,0.1c1.9,0.1,3.3,1.2,4,2.8    c1.3,3.2-0.7,5.3-7.9,13c-14.2,15.3-47.5,51.1-78.3,117.3l-0.2,0.4l-0.3,0.4C408.6,436.2,402.4,438.8,394.8,438.8z"></path><path fill="#fff" d="M492.7,301.2c0.8,0,1.5,0,2.2,0.1c6.5,0.5-42,34-85.5,127.5c-3.7,4.7-9.4,6.1-14.6,6.1    c-5.8,0-11-1.7-12.4-2.6c-2.6-1.6-28.5-35-28.5-35c-1.3-8.1,7.4-14.2,12.1-14.2c0.5,0,1,0.1,1.4,0.2c5.9,1.5,26.5,21.5,26.5,21.5    s64.2-93.9,73.5-98C475.7,303.1,486,301.2,492.7,301.2 M492.7,293.2c-7.1,0-18.7,1.9-28.5,6.3c-3.1,1.4-7.8,3.4-43.5,53.2    c-11.2,15.6-21.9,31-28.1,39.9c-1.4-1.3-2.9-2.6-4.4-4c-11-9.7-15.4-12.1-18.3-12.9c-1.2-0.4-2.5-0.6-3.9-0.6    c-5.2,0-11.3,3.1-15.4,8c-3.9,4.6-5.5,10.1-4.6,15.6l0.3,2l1.2,1.6c26.8,34.5,29.3,36.1,30.6,36.9c3,1.8,9.8,3.8,16.6,3.8    c8.9,0,16.1-3.1,20.9-9.1l0.6-0.7l0.4-0.9c30.5-65.6,63.5-101.1,77.6-116.3c2.5-2.6,4.4-4.7,5.8-6.4c1.5-1.8,4.9-5.9,2.9-10.9    c-1.2-3-4-5.1-7.4-5.4C494.6,293.2,493.7,293.2,492.7,293.2L492.7,293.2z"></path></g></g><g><path fill="#fff" d="M122.7 496.7h6v14.6h9.3v4.8h-15.3V496.7zM141.8 496.7h16v4.1h-10v3.1h9.2v3.9h-9.3v3.8H158v4.4h-16.2V496.7zM160.5 496.7h6.2l4.3 13.9 4.3-13.9h6.1l-7.2 19.3h-6.5L160.5 496.7zM184.4 496.7h16v4.1h-10v3.1h9.3v3.9h-9.3v3.8h10.3v4.4h-16.3C184.4 516 184.4 496.7 184.4 496.7zM205 496.7h6v14.6h9.3v4.8H205V496.7zM245.5 496.4v19.7h-5.4v-12.9c-.9.7-1.7 1.2-2.6 1.6s-1.9.8-3.1 1.2v-4.4c1.8-.6 3.2-1.3 4.3-2.1s1.8-1.8 2.4-3.1L245.5 496.4 245.5 496.4z"></path></g><g><path fill="#fff" d="M121 530.1h20.5l14.3 45.8 14.1-45.8h19.9l-23.6 63.6H145L121 530.1zM196.3 530.1h52.6v13.6h-33v10.1h30.6v13H216v12.5h33.9v14.4h-53.6L196.3 530.1 196.3 530.1zM260.7 593.7v-63.6h32.7c6.1 0 10.7.5 13.9 1.6 3.2 1 5.8 3 7.8 5.8s2.9 6.3 2.9 10.3c0 3.5-.8 6.6-2.3 9.1-1.5 2.6-3.6 4.6-6.2 6.2-1.7 1-4 1.9-6.9 2.5 2.3.8 4 1.6 5.1 2.3.7.5 1.8 1.6 3.1 3.3 1.4 1.7 2.3 3 2.8 3.9l9.5 18.4H301l-10.5-19.4c-1.3-2.5-2.5-4.1-3.6-4.9-1.4-1-3-1.5-4.8-1.5h-1.7v25.8h-19.7V593.7zM280.4 555.9h8.3c.9 0 2.6-.3 5.2-.9 1.3-.3 2.4-.9 3.2-2 .8-1.1 1.2-2.3 1.2-3.7 0-2.1-.7-3.6-2-4.7-1.3-1.1-3.7-1.6-7.3-1.6h-8.6L280.4 555.9 280.4 555.9zM326.1 572.7l18.7-1.2c.4 3 1.2 5.3 2.5 6.9 2 2.6 4.9 3.9 8.7 3.9 2.8 0 5-.7 6.5-2s2.3-2.8 2.3-4.6c0-1.6-.7-3.1-2.2-4.4-1.4-1.3-4.8-2.5-10.1-3.7-8.6-1.9-14.8-4.5-18.4-7.7-3.7-3.2-5.6-7.3-5.6-12.3 0-3.3.9-6.4 2.8-9.3 1.9-2.9 4.7-5.2 8.5-6.9s9-2.5 15.6-2.5c8.1 0 14.3 1.5 18.6 4.5 4.3 3 6.8 7.8 7.6 14.4l-18.5 1.1c-.5-2.9-1.5-4.9-3.1-6.2-1.6-1.3-3.8-2-6.5-2-2.3 0-4 .5-5.2 1.5s-1.7 2.1-1.7 3.5c0 1 .5 1.9 1.4 2.7s3.1 1.6 6.6 2.3c8.6 1.9 14.7 3.7 18.5 5.6 3.7 1.9 6.4 4.2 8.1 7s2.5 5.9 2.5 9.4c0 4.1-1.1 7.8-3.4 11.3-2.3 3.4-5.4 6-9.5 7.8s-9.2 2.7-15.3 2.7c-10.8 0-18.3-2.1-22.5-6.2C329 584.4 326.7 579.1 326.1 572.7zM394.5 530.1h19.7v63.6h-19.7V530.1zM425.8 562c0-10.4 2.9-18.5 8.7-24.2 5.8-5.8 13.8-8.7 24.2-8.7 10.6 0 18.7 2.8 24.5 8.5 5.7 5.7 8.6 13.6 8.6 23.9 0 7.4-1.3 13.5-3.8 18.3s-6.1 8.5-10.8 11.1c-4.7 2.6-10.6 4-17.7 4-7.2 0-13.1-1.1-17.8-3.4-4.7-2.3-8.5-5.9-11.4-10.8C427.2 575.6 425.8 569.4 425.8 562zM445.4 562c0 6.4 1.2 11 3.6 13.8s5.6 4.2 9.7 4.2c4.2 0 7.5-1.4 9.8-4.1s3.5-7.7 3.5-14.8c0-6-1.2-10.4-3.6-13.1-2.4-2.8-5.7-4.1-9.8-4.1-4 0-7.1 1.4-9.5 4.2C446.6 550.9 445.4 555.6 445.4 562zM502.4 530.1h18.3l23.9 35.2v-35.2h18.5v63.6h-18.5l-23.8-34.9v34.9h-18.5v-63.6H502.4zM620.1 548.5l-16.7-3c1.4-5.3 4.1-9.4 8-12.2 3.9-2.8 9.5-4.2 16.8-4.2 8.3 0 14.3 1.5 18 4.6 3.7 3.1 5.6 7 5.6 11.7 0 2.7-.8 5.2-2.3 7.5s-3.8 4.2-6.8 5.9c2.5.6 4.3 1.3 5.6 2.1 2.1 1.3 3.8 3 4.9 5.1 1.1 2.1 1.8 4.7 1.8 7.6 0 3.7-1 7.2-2.9 10.6-1.9 3.4-4.7 6-8.4 7.8-3.6 1.8-8.4 2.8-14.4 2.8-5.8 0-10.3-.7-13.7-2-3.3-1.4-6.1-3.3-8.2-6-2.2-2.6-3.8-5.9-5-9.9l17.7-2.3c.7 3.6 1.8 6 3.2 7.4 1.5 1.4 3.3 2.1 5.6 2.1 2.4 0 4.3-.9 5.9-2.6 1.6-1.7 2.4-4 2.4-6.9 0-2.9-.8-5.2-2.3-6.9-1.5-1.6-3.6-2.4-6.2-2.4-1.4 0-3.3.3-5.7 1l.9-12.6c1 .1 1.7.2 2.3.2 2.3 0 4.2-.7 5.8-2.2 1.5-1.5 2.3-3.2 2.3-5.2 0-1.9-.6-3.5-1.7-4.6-1.2-1.2-2.7-1.7-4.8-1.7s-3.8.6-5.1 1.9C621.4 543.2 620.6 545.4 620.1 548.5zM663.9 576h18.9v17.7h-18.9V576zM731.8 529v64.7h-17.9v-42.4c-2.9 2.2-5.7 4-8.4 5.3-2.7 1.4-6.1 2.7-10.2 3.9V546c6-1.9 10.7-4.3 14-7s5.9-6.1 7.8-10.1h14.7V529z"></path></g></svg>